<?xml version="1.0" encoding="utf-8"?>
<!-- Generator: Adobe Illustrator 25.2.1, SVG Export Plug-In . SVG Version: 6.00 Build 0)  -->
<svg version="1.1" id="Layer_1" xmlns="http://www.w3.org/2000/svg" xmlns:xlink="http://www.w3.org/1999/xlink" x="0px" y="0px"
	 viewBox="0 0 751.4 271.6" style="enable-background:new 0 0 751.4 271.6;" xml:space="preserve">
<style type="text/css">
	.st0{fill-rule:evenodd;clip-rule:evenodd;fill:#423836;}
	.st1{fill:url(#SVGID_1_);}
	.st2{fill:url(#SVGID_2_);}
</style>
<g>
	<path class="st0" d="M478.5,126c12.3,0,18.8,3.4,22.3,11.4c16.6,37.5,33.3,74.9,49.8,112.5c3.5,8.1,0.8,15.7-6.1,19.1
		c-7.7,3.8-16.2,1.1-20.3-6.8c-3.3-6.4-5.5-13.4-8.9-19.7c-1.2-2.2-4.6-4.6-7-4.7c-17.4-0.4-34.8-0.1-52.2-0.3
		c-4.1-0.1-6.3,1.2-7.8,5.1c-2.3,6.3-5,12.5-7.9,18.5c-3.9,8.3-11.9,11.5-19.7,8.2c-7.5-3.2-10.4-10.9-6.7-19.4
		c16.5-37.5,33.2-75,49.9-112.4C467.5,129.5,473.8,126,478.5,126z M501.9,210.3c-6.7-15.9-12.9-30.7-20-47.5
		c-7.1,17-13.3,31.9-19.9,47.5C475.7,210.3,488,210.3,501.9,210.3z"/>
	<path class="st0" d="M696.3,126.4c14.8-0.2,28.5,3.5,41.3,10.9c8.4,4.9,11.3,13.4,7,20.7c-4.1,6.9-12.4,8.1-21.1,4.2
		c-8.1-3.6-16.6-6.2-25.1-8.9c-2.5-0.8-5.5-0.4-8.1,0c-6.7,1-12.8,3.2-14.1,11c-1.3,8,3.7,12,10.2,14.4c7.7,2.8,15.7,4.7,23.5,7.3
		c6.8,2.2,13.7,4.4,20.2,7.4c14.6,6.7,21.7,18.3,21.4,34.4c-0.3,16.6-6.6,29.8-22,36.9c-24.7,11.4-48.9,7.4-72.6-3.9
		c-3.1-1.5-6-3.5-8.9-5.4c-7.1-4.9-9.1-13.3-4.9-20.1c4-6.5,12.9-7.8,20.5-4c9.2,4.6,18.6,9.4,28.4,12.2c5.8,1.7,12.8,0.3,19-0.8
		c5.3-1,9.3-4.7,9.9-10.7c0.7-6.4-2.5-10.8-8-12.9c-8.3-3.2-17-5.6-25.4-8.4c-7.5-2.5-15.2-4.8-22.4-8c-26.8-11.7-25-53.6-2.2-67.7
		C673.2,128.5,684.3,125.9,696.3,126.4z"/>
	<path class="st0" d="M611.3,199c0,18.2,0,36.3,0,54.5c0,10.8-5.8,17.1-15.4,17c-9.3-0.1-15-6.1-15-16.7c-0.1-36.6-0.1-73.1,0-109.7
		c0-10.4,5.8-16.9,14.7-17.1c9.5-0.3,15.6,6,15.7,16.8C611.5,162.2,611.3,180.6,611.3,199C611.3,199,611.3,199,611.3,199z"/>
	<linearGradient id="SVGID_1_" gradientUnits="userSpaceOnUse" x1="218.0084" y1="61.7512" x2="471.0105" y2="-36.0168">
		<stop  offset="0" style="stop-color:#CADE1F"/>
		<stop  offset="1" style="stop-color:#6FA42E"/>
	</linearGradient>
	<path class="st1" d="M0,25.3c0,0,122.4,86.6,258.2,52.2C394.1,43.2,494.1-13.5,538.8,2.9C516.5,13.4,463.7,47.7,412.4,94
		C361.2,140.2,195.5,217.9,0,25.3z"/>
	<linearGradient id="SVGID_2_" gradientUnits="userSpaceOnUse" x1="246.0036" y1="157.1806" x2="87.0375" y2="103.4456">
		<stop  offset="0" style="stop-color:#CADE1F"/>
		<stop  offset="1" style="stop-color:#6FA42E"/>
	</linearGradient>
	<path class="st2" d="M71.6,95.5c0,0,135.8,128.9,293.1,38.8C351.3,153.2,226.9,316.4,71.6,95.5z"/>
</g>
</svg>
